<svg width="20" height="21" viewBox="0 0 20 21" fill="none" xmlns="http://www.w3.org/2000/svg">
<g id="Frame" clip-path="url(#clip0_22_33)">
<path id="Vector" d="M4.16675 11.3333C4.16675 10.8913 4.34234 10.4674 4.6549 10.1548C4.96746 9.84227 5.39139 9.66667 5.83341 9.66667H14.1667C14.6088 9.66667 15.0327 9.84227 15.3453 10.1548C15.6578 10.4674 15.8334 10.8913 15.8334 11.3333V16.3333C15.8334 16.7754 15.6578 17.1993 15.3453 17.5118C15.0327 17.8244 14.6088 18 14.1667 18H5.83341C5.39139 18 4.96746 17.8244 4.6549 17.5118C4.34234 17.1993 4.16675 16.7754 4.16675 16.3333V11.3333Z" stroke="#D4D4D8" stroke-width="1.66667" stroke-linecap="round" stroke-linejoin="round"/>
<path id="Vector_2" d="M9.16675 13.8333C9.16675 14.0543 9.25455 14.2663 9.41083 14.4226C9.56711 14.5789 9.77907 14.6667 10.0001 14.6667C10.2211 14.6667 10.4331 14.5789 10.5893 14.4226C10.7456 14.2663 10.8334 14.0543 10.8334 13.8333C10.8334 13.6123 10.7456 13.4004 10.5893 13.2441C10.4331 13.0878 10.2211 13 10.0001 13C9.77907 13 9.56711 13.0878 9.41083 13.2441C9.25455 13.4004 9.16675 13.6123 9.16675 13.8333Z" stroke="#D4D4D8" stroke-width="1.66667" stroke-linecap="round" stroke-linejoin="round"/>
<path id="Vector_3" d="M6.66675 9.66667V6.33333C6.66675 5.44928 7.01794 4.60143 7.64306 3.97631C8.26818 3.35119 9.11603 3 10.0001 3C10.8841 3 11.732 3.35119 12.3571 3.97631C12.9822 4.60143 13.3334 5.44928 13.3334 6.33333V9.66667" stroke="#D4D4D8" stroke-width="1.66667" stroke-linecap="round" stroke-linejoin="round"/>
</g>
<defs>
<clipPath id="clip0_22_33">
<rect width="20" height="20" fill="white" transform="translate(0 0.5)"/>
</clipPath>
</defs>
</svg>
