<svg width="20" height="21" viewBox="0 0 20 21" fill="none" xmlns="http://www.w3.org/2000/svg">
<g id="Frame" clip-path="url(#clip0_22_39)">
<path id="Vector" d="M2.5 11.3333C2.5 10.8913 2.67559 10.4674 2.98816 10.1548C3.30072 9.84225 3.72464 9.66666 4.16667 9.66666H12.5C12.942 9.66666 13.366 9.84225 13.6785 10.1548C13.9911 10.4674 14.1667 10.8913 14.1667 11.3333V16.3333C14.1667 16.7754 13.9911 17.1993 13.6785 17.5118C13.366 17.8244 12.942 18 12.5 18H4.16667C3.72464 18 3.30072 17.8244 2.98816 17.5118C2.67559 17.1993 2.5 16.7754 2.5 16.3333V11.3333Z" stroke="#D4D4D8" stroke-width="1.66667" stroke-linecap="round" stroke-linejoin="round"/>
<path id="Vector_2" d="M7.5 13.8333C7.5 14.0543 7.5878 14.2663 7.74408 14.4226C7.90036 14.5789 8.11232 14.6667 8.33333 14.6667C8.55435 14.6667 8.76631 14.5789 8.92259 14.4226C9.07887 14.2663 9.16667 14.0543 9.16667 13.8333C9.16667 13.6123 9.07887 13.4004 8.92259 13.2441C8.76631 13.0878 8.55435 13 8.33333 13C8.11232 13 7.90036 13.0878 7.74408 13.2441C7.5878 13.4004 7.5 13.6123 7.5 13.8333Z" stroke="#D4D4D8" stroke-width="1.66667" stroke-linecap="round" stroke-linejoin="round"/>
<path id="Vector_3" d="M10.8333 9.66667V6.33333C10.8333 5.44928 11.1844 4.60143 11.8096 3.97631C12.4347 3.35119 13.2825 3 14.1666 3C15.0506 3 15.8985 3.35119 16.5236 3.97631C17.1487 4.60143 17.4999 5.44928 17.4999 6.33333V9.66667" stroke="#D4D4D8" stroke-width="1.66667" stroke-linecap="round" stroke-linejoin="round"/>
</g>
<defs>
<clipPath id="clip0_22_39">
<rect width="20" height="20" fill="white" transform="translate(0 0.5)"/>
</clipPath>
</defs>
</svg>
